# AST/ASF file generated using VICON BodyLanguage
# -----------------------------------------------
:version 1.10
:name VICON
:units
  mass 1.0
  length 0.45
  angle deg
:documentation
   .ast/.asf automatically generated from VICON data using
   VICON BodyBuilder and BodyLanguage model FoxedUp or BRILLIANT.MOD
:root
   order TX TY TZ RX RY RZ
   axis XYZ
   position 0 0 0  
   orientation 0 0 0 
:bonedata
  begin
     id 1 
     name lhipjoint
     direction 0.630082 -0.636569 0.44472 
     length 2.82754 
     axis 0 0 0  XYZ
  end
  begin
     id 2 
     name lfemur
     direction 0.34202 -0.939693 0  
     length 7.26371  
     axis 0 0 20  XYZ
    dof rx ry rz
    limits (-160.0 20.0)
           (-70.0 70.0)
           (-60.0 70.0)
  end
  begin
     id 3 
     name ltibia
     direction 0.34202 -0.939693 0   
     length 7.88616   
     axis 0 0 20   XYZ
    dof rx
    limits (-10.0 170.0)
  end
  begin
     id 4 
     name lfoot
     direction 0.0603448 -0.165796 0.984312   
     length 1.77861   
     axis -90 7.62852e-016 20   XYZ
    dof rx rz
    limits (-45.0 90.0)
           (-70.0 20.0)
  end
  begin
     id 5 
     name ltoes
     direction 1.53577e-011 -4.21876e-011 1   
     length 0.902235   
     axis -90 7.62852e-016 20   XYZ
    dof rx
    limits (-90.0 20.0)
  end
  begin
     id 6 
     name rhipjoint
     direction -0.656778 -0.61817 0.431866   
     length 2.9117  
     axis 0 0 0  XYZ 
  end
  begin
     id 7 
     name rfemur
     direction -0.34202 -0.939693 0   
     length 6.81603   
     axis 0 0 -20   XYZ
    dof rx ry rz
    limits (-160.0 20.0)
           (-70.0 70.0)
           (-70.0 60.0)
  end
  begin
     id 8 
     name rtibia
     direction -0.34202 -0.939693 0   
     length 8.05997   
     axis 0 0 -20   XYZ
    dof rx
    limits (-10.0 170.0)
 end
 begin
     id 9 
     name rfoot
     direction -0.0862404 -0.236944 0.967688   
     length 1.84899  
     axis -90 -7.62852e-016 -20   XYZ
    dof rx rz
    limits (-45.0 90.0)
           (-20.0 70.0)
  end
  begin
     id 10 
     name rtoes
     direction -1.53561e-011 -4.21798e-011 1   
     length 0.931579   
     axis -90 -7.62852e-016 -20   XYZ
    dof rx
    limits (-90.0 20.0)
  end
  begin
     id 11 
     name lowerback
     direction -0.0110203 0.991769 -0.127564   
     length 2.05686   
     axis 0 0 0   XYZ
    dof rx ry rz
    limits (-20.0 45.0)
           (-30.0 30.0)
           (-30.0 30.0)
  end
  begin
     id 12 
     name upperback
     direction 0.0109719 0.99993 -0.00432479   
     length 2.06234   
     axis 0 0 0   XYZ
    dof rx ry rz
    limits (-20.0 45.0)
           (-30.0 30.0)
           (-30.0 30.0)
  end
  begin
     id 13 
     name thorax
     direction 0.0173308 0.998351 0.0547306   
     length 2.09856   
     axis 0 0 0   XYZ
    dof rx ry rz
    limits (-20.0 45.0)
           (-30.0 30.0)
           (-30.0 30.0)
  end
  begin
     id 14 
     name lowerneck
     direction -0.0311736 0.989033 0.144366   
     length 1.98151   
     axis 0 0 0   XYZ
    dof rx ry rz
    limits (-20.0 45.0)
           (-30.0 30.0)
           (-30.0 30.0)
  end
  begin
     id 15 
     name upperneck
     direction 0.0421057 0.975772 -0.214698   
     length 2.01457   
     axis 0 0 0   XYZ
    dof rx ry rz
    limits (-20.0 45.0)
           (-30.0 30.0)
           (-30.0 30.0)
  end
  begin
     id 16
     name head
     direction 0.0136911 0.995958 -0.0887718  
     length 2.03562  
     axis 0 0 0   XYZ
    dof rx ry rz
    limits (-20.0 45.0)
           (-30.0 30.0)
           (-30.0 30.0)
  end
  begin
     id 17 
     name lclavicle
     direction 0.915335 0.396201 0.0720134  
     length 4.16217  
     axis 0 0 0   XYZ
    dof ry rz
    limits (-20.0 10.0)
           (0.0 20.0)
  end
  begin
     id 18 
     name lhumerus
     direction 1 -4.48965e-011 6.383e-018   
     length 4.93042   
     axis -180 -30 -90   XYZ
    dof rx ry rz
    limits (-60.0 90.0)
           (-90.0 90.0)
           (-90.0 90.0)
  end
  begin
     id 19
     name lradius
     direction 1 -4.48972e-011 8.8689e-027   
     length 3.68177   
     axis -180 -30 -90   XYZ
    dof rx
    limits (-10.0 170.0)
  end
  begin
     id 20
     name lwrist
     direction 1 -4.48953e-011 1.17971e-026   
     length 1.84089   
     axis -7.69454e-015 90 90   XYZ
    dof ry
    limits (-180.0 0.0)
 end
  begin
     id 21 
     name lhand
     direction 1 -4.49027e-011 2.35802e-026   
     length 0.721479   
     axis -1.50533e-014 90 90   XYZ
    dof rx rz
    limits (-90.0 90.0)
           (-45.0 45.0)
  end
  begin
     id 22 
     name lfingers
     direction 1 -4.48915e-011 4.72027e-026   
     length 0.581675   
     axis -3.01059e-014 90 90   XYZ
    dof rx
    limits (0.0 90.0)
  end
  begin
     id 23
     name lthumb
     direction 0.707107 -6.34948e-011 0.707107   
     length 0.835172   
     axis -90 45 -5.12164e-014   XYZ
    dof rx rz
    limits (-45.0 45.0)
           (-45.0 45.0)
  end
  begin
     id 24 
     name rclavicle
     direction -0.882781 0.469197 0.0234974   
     length 3.95647  
     axis 0 0 0   XYZ 
    dof ry rz
    limits (-10.0 20.0)
           (-20.0 0.0)
  end
  begin
     id 25 
     name rhumerus
     direction -1 -4.48965e-011 -1.54906e-018  
     length 5.07905   
     axis -180 30 90   XYZ
    dof rx ry rz
    limits (-90.0 60.0)
           (-90.0 90.0)
           (-90.0 90.0)
  end
  begin
     id 26 
     name rradius
     direction -1 -4.48972e-011 5.47489e-027   
     length 3.54394   
     axis -180 30 90   XYZ
    dof rx
    limits (-10.0 170.0)
  end
  begin
     id 27 
     name rwrist
     direction -1 -4.48955e-011 1.17969e-026   
     length 1.77197   
     axis -7.69454e-015 -90 -90   XYZ
    dof ry
    limits (-180.0 0.0)
  end
  begin
     id 28
     name rhand
     direction -1 -4.48982e-011 2.35888e-026   
     length 0.681156   
     axis -1.50533e-014 -90 -90   XYZ
    dof rx rz
    limits (-90.0 90.0)
           (-45.0 45.0)
  end
  begin
     id 29
     name rfingers
     direction -1 -4.48955e-011 4.71877e-026   
     length 0.549165   
     axis -3.01059e-014 -90 -90   XYZ
    dof rx
    limits (0.0 90.0)
  end
  begin
     id 30
     name rthumb
     direction -0.707107 -6.3491e-011 0.707107   
     length 0.788495   
     axis -90 -45 5.12164e-014   XYZ
    dof rx rz
    limits (-45.0 45.0)
           (-45.0 45.0)
  end
:hierarchy
  begin
    root lhipjoint rhipjoint lowerback
    lhipjoint lfemur
    lfemur ltibia
    ltibia lfoot
    lfoot ltoes
    rhipjoint rfemur
    rfemur rtibia
    rtibia rfoot
    rfoot rtoes
    lowerback upperback
    upperback thorax
    thorax lowerneck lclavicle rclavicle
    lowerneck upperneck
    upperneck head
    lclavicle lhumerus
    lhumerus lradius
    lradius lwrist
    lwrist lhand lthumb
    lhand lfingers
    rclavicle rhumerus
    rhumerus rradius
    rradius rwrist
    rwrist rhand rthumb
    rhand rfingers
  end

#!OML:ASF H:\Bending\Project 1\Capture day 1\Session 1\Subject.ASF
:FULLY-SPECIFIED
:DEGREES
455
root -11.7084 18.0191 -16.3401 33.0083 92.5858 29.399
lowerback 6.25811 -0.604088 0.817733
upperback -1.94601 -0.602158 2.16682
thorax -5.52235 -0.276941 1.85954
lowerneck -21.3479 -3.30325 -6.46237
upperneck 31.3229 -2.8083 2.8006
head 14.529 -1.38074 1.78771
rclavicle 2.06239e-015 5.96354e-015
rhumerus -42.8655 -5.02019 -73.9656
rradius 35.656
rwrist 6.70172
rhand -18.9361 -21.3715
rfingers 7.12502
rthumb 7.36687 -51.2232
lclavicle 2.06239e-015 5.96354e-015
lhumerus -38.4802 12.1911 85.4744
lradius 24.6958
lwrist 18.0896
lhand -33.1631 7.17956
lfingers 7.12502
lthumb -6.3717 37.0637
rfemur 3.93383 -9.02576 19.4839
rtibia -7.95139e-015
rfoot -10.0679 -6.93753
rtoes -2.40986
lfemur -9.26732 -15.5632 -13.5007
ltibia 22.5956
lfoot -21.4133 15.0282
ltoes -37.2387
456
root -11.7088 18.0179 -16.37 36.2896 92.7015 32.6675
lowerback 6.23693 -0.576386 1.03019
upperback -1.9107 -0.544075 2.22106
thorax -5.47649 -0.253972 1.78935
lowerneck -21.2467 -3.36545 -6.58492
upperneck 30.9684 -2.9257 2.94663
head 14.3607 -1.42821 1.84032
rclavicle 3.65267e-015 -3.97569e-016
rhumerus -42.9091 -5.19663 -73.9682
rradius 35.5572
rwrist 6.63259
rhand -18.9497 -21.267
rfingers 7.12502
rthumb 7.35371 -51.1192
lclavicle 3.65267e-015 -3.97569e-016
lhumerus -38.29 11.4036 85.8661
lradius 25.202
lwrist 18.4308
lhand -33.1543 7.21428
lfingers 7.12502
lthumb -6.36315 37.0987
rfemur 3.90066 -9.03424 19.6257
rtibia 1.11319e-014
rfoot -9.91603 -7.14821
rtoes -3.98155
lfemur -9.41658 -15.4896 -13.3999
ltibia 22.8461
lfoot -21.5863 14.948
ltoes -37.0854
457
root -11.7079 18.0192 -16.4016 38.221 92.7398 34.5916
lowerback 6.22472 -0.548092 1.16434
upperback -1.87915 -0.493597 2.25095
thorax -5.43868 -0.232704 1.73893
lowerneck -21.1301 -3.41399 -6.72277
upperneck 30.6069 -3.02344 3.11092
head 14.1874 -1.46659 1.90643
rclavicle 1.36913e-014 -5.24792e-014
rhumerus -42.954 -5.10617 -74.0872
rradius 35.492
rwrist 6.50687
rhand -18.909 -21.2321
rfingers 7.12502
rthumb 7.39296 -51.0829
lclavicle 1.36913e-014 -5.24792e-014
lhumerus -38.1759 10.6823 86.2228
lradius 25.8979
lwrist 18.8903
lhand -33.1598 7.25347
lfingers 7.12502
lthumb -6.36849 37.1377
rfemur 3.88218 -9.00861 19.6444
rtibia 1.66979e-014
rfoot -9.81281 -7.28858
rtoes -4.85918
lfemur -9.49362 -15.5466 -13.4349
ltibia 23.0388
lfoot -21.791 14.9585
ltoes -36.5385
458
root -11.7071 18.0224 -16.4323 38.8481 92.7072 35.2121
lowerback 6.22763 -0.520401 1.18824
upperback -1.85401 -0.45468 2.25784
thorax -5.41497 -0.214136 1.72813
lowerneck -20.9856 -3.45069 -6.86155
upperneck 30.2288 -3.10854 3.28718
head 14.0024 -1.49809 1.97942
rclavicle -1.26228e-014 9.54166e-015
rhumerus -43.0044 -4.80717 -74.3029
rradius 35.4655
rwrist 6.37573
rhand -18.7858 -21.2235
rfingers 7.12502
rthumb 7.51189 -51.0701
lclavicle -1.26228e-014 9.54166e-015
lhumerus -38.1174 10.0442 86.53
lradius 26.7394
lwrist 19.4096
lhand -33.1562 7.29879
lfingers 7.12502
lthumb -6.36505 37.1832
rfemur 3.87146 -8.96404 19.5494
rtibia -3.73715e-014
rfoot -9.74395 -7.33933
rtoes -5.15379
lfemur -9.51986 -15.6551 -13.5755
ltibia 23.16
lfoot -21.9423 14.9894
ltoes -35.8296
459
root -11.7071 18.0263 -16.4599 38.6718 92.6324 35.0288
lowerback 6.2407 -0.488249 1.12456
upperback -1.83248 -0.41842 2.24583
thorax -5.40013 -0.194567 1.7474
lowerneck -20.799 -3.48419 -6.99038
upperneck 29.8208 -3.19839 3.47433
head 13.7978 -1.52921 2.05353
rclavicle -1.71452e-015 -3.97569e-016
rhumerus -43.0584 -4.43319 -74.5677
rradius 35.4543
rwrist 6.33702
rhand -18.5864 -21.176
rfingers 7.12502
rthumb 7.70434 -51.0157
lclavicle -1.71452e-015 -3.97569e-016
lhumerus -38.0882 9.44637 86.7984
lradius 27.6769
lwrist 19.9632
lhand -33.1543 7.35069
lfingers 7.12502
lthumb -6.36319 37.2351
rfemur 3.86266 -8.91044 19.3925
rtibia 2.38542e-015
rfoot -9.6822 -7.31059
rtoes -5.19731
lfemur -9.52424 -15.6971 -13.7547
ltibia 23.2201
lfoot -21.978 14.9674
ltoes -35.2419
460
root -11.7074 18.03 -16.4835 38.4556 92.5504 34.808
lowerback 6.25062 -0.444485 1.03122
upperback -1.8087 -0.370328 2.22001
thorax -5.38133 -0.168582 1.76762
lowerneck -20.5585 -3.52543 -7.10978
upperneck 29.3709 -3.31109 3.67764
head 13.5682 -1.56739 2.12752
rclavicle 3.52843e-015 -4.09496e-014
rhumerus -43.1071 -4.12999 -74.8254
rradius 35.4195
rwrist 6.48499
rhand -18.3518 -21.0372
rfingers 7.12502
rthumb 7.93076 -50.8684
lclavicle 3.52843e-015 -4.09496e-014
lhumerus -38.0669 8.82815 87.0481
lradius 28.6625
lwrist 20.5478
lhand -33.1903 7.40258
lfingers 7.12502
lthumb -6.39794 37.2859
rfemur 3.85455 -8.85187 19.2385
rtibia -7.95139e-015
rfoot -9.60549 -7.23273
rtoes -5.32881
lfemur -9.52919 -15.5808 -13.9052
ltibia 23.2472
lfoot -21.8843 14.8471
ltoes -34.9701
461
root -11.7072 18.0327 -16.5034 38.9167 92.4852 35.2724
lowerback 6.24325 -0.384641 0.968018
upperback -1.77687 -0.29933 2.18519
thorax -5.34511 -0.132502 1.75875
lowerneck -20.2601 -3.58245 -7.23275
upperneck 28.8745 -3.45613 3.90597
head 13.3129 -1.61738 2.20541
rclavicle 2.36057e-015 -4.37326e-015
rhumerus -43.1395 -3.99172 -75.0337
rradius 35.3294
rwrist 6.8581
rhand -18.1373 -20.7947
rfingers 7.12502
rthumb 8.13784 -50.618
lclavicle 2.36057e-015 -4.37326e-015
lhumerus -38.0408 8.16561 87.2892
lradius 29.6485
lwrist 21.1528
lhand -33.3009 7.43661
lfingers 7.12502
lthumb -6.50475 37.3167
rfemur 3.85228 -8.78757 19.1335
rtibia 2.38542e-015
rfoot -9.51061 -7.1403
rtoes -5.705
lfemur -9.54143 -15.2855 -13.9894
ltibia 23.2744
lfoot -21.6974 14.6281
ltoes -35.0376
